# AST/ASF file generated using VICON BodyLanguage
# -----------------------------------------------
:version 1.10
:name VICON
:units
  mass 1.0
  length 0.45
  angle deg
:documentation
   .ast/.asf automatically generated from VICON data using
   VICON BodyBuilder and BodyLanguage model FoxedUp or BRILLIANT.MOD
:root
   order TX TY TZ RX RY RZ
   axis XYZ
   position 0 0 0  
   orientation 0 0 0 
:bonedata
  begin
     id 1 
     name lhipjoint
     direction 0.584852 -0.759097 0.285867 
     length 2.43633 
     axis 0 0 0  XYZ
  end
  begin
     id 2 
     name lfemur
     direction 0.34202 -0.939693 0  
     length 7.14704  
     axis 0 0 20  XYZ
    dof rx ry rz
    limits (-160.0 20.0)
           (-70.0 70.0)
           (-60.0 70.0)
  end
  begin
     id 3 
     name ltibia
     direction 0.342022 -0.939692 0   
     length 7.68483   
     axis 0 0 20   XYZ
    dof rx
    limits (-10.0 170.0)
  end
  begin
     id 4 
     name lfoot
     direction 0.0999605 -0.274639 0.956337   
     length 2.40452   
     axis -90 7.62852e-016 20   XYZ
    dof rx rz
    limits (-45.0 90.0)
           (-70.0 20.0)
  end
  begin
     id 5 
     name ltoes
     direction 1.53468e-011 -4.21881e-011 1   
     length 1.19837   
     axis -90 7.62852e-016 20   XYZ
    dof rx
    limits (-90.0 20.0)
  end
  begin
     id 6 
     name rhipjoint
     direction -0.569886 -0.769002 0.289597   
     length 2.40495  
     axis 0 0 0  XYZ 
  end
  begin
     id 7 
     name rfemur
     direction -0.34202 -0.939693 0   
     length 7.45086   
     axis 0 0 -20   XYZ
    dof rx ry rz
    limits (-160.0 20.0)
           (-70.0 70.0)
           (-70.0 60.0)
  end
  begin
     id 8 
     name rtibia
     direction -0.34202 -0.939693 0   
     length 7.76831   
     axis 0 0 -20   XYZ
    dof rx
    limits (-10.0 170.0)
 end
 begin
     id 9 
     name rfoot
     direction -0.0798572 -0.219406 0.97236   
     length 2.35911  
     axis -90 -7.62852e-016 -20   XYZ
    dof rx rz
    limits (-45.0 90.0)
           (-20.0 70.0)
  end
  begin
     id 10 
     name rtoes
     direction -1.53469e-011 -4.21728e-011 1   
     length 1.18261   
     axis -90 -7.62852e-016 -20   XYZ
    dof rx
    limits (-90.0 20.0)
  end
  begin
     id 11 
     name lowerback
     direction 0.0242088 0.999437 0.0232389   
     length 2.1561   
     axis 0 0 0   XYZ
    dof rx ry rz
    limits (-20.0 45.0)
           (-30.0 30.0)
           (-30.0 30.0)
  end
  begin
     id 12 
     name upperback
     direction -0.0356893 0.999013 -0.0264323   
     length 2.14431   
     axis 0 0 0   XYZ
    dof rx ry rz
    limits (-20.0 45.0)
           (-30.0 30.0)
           (-30.0 30.0)
  end
  begin
     id 13 
     name thorax
     direction -0.0472163 0.998194 -0.0371284   
     length 2.16169   
     axis 0 0 0   XYZ
    dof rx ry rz
    limits (-20.0 45.0)
           (-30.0 30.0)
           (-30.0 30.0)
  end
  begin
     id 14 
     name lowerneck
     direction 0.00863244 0.999921 0.00911972   
     length 1.58651   
     axis 0 0 0   XYZ
    dof rx ry rz
    limits (-20.0 45.0)
           (-30.0 30.0)
           (-30.0 30.0)
  end
  begin
     id 15 
     name upperneck
     direction 0.149523 0.979068 -0.138086   
     length 1.57486   
     axis 0 0 0   XYZ
    dof rx ry rz
    limits (-20.0 45.0)
           (-30.0 30.0)
           (-30.0 30.0)
  end
  begin
     id 16
     name head
     direction 0.0445219 0.997708 -0.0509576  
     length 1.6019  
     axis 0 0 0   XYZ
    dof rx ry rz
    limits (-20.0 45.0)
           (-30.0 30.0)
           (-30.0 30.0)
  end
  begin
     id 17 
     name lclavicle
     direction 0.911271 0.381667 -0.154644  
     length 3.80848  
     axis 0 0 0   XYZ
    dof ry rz
    limits (-20.0 10.0)
           (0.0 20.0)
  end
  begin
     id 18 
     name lhumerus
     direction 1 -4.49003e-011 2.1308e-027   
     length 5.19069   
     axis 180 -30 -90   XYZ
    dof rx ry rz
    limits (-60.0 90.0)
           (-90.0 90.0)
           (-90.0 90.0)
  end
  begin
     id 19
     name lradius
     direction 1 -4.48914e-011 4.01554e-027   
     length 3.30016   
     axis 180 -30 -90   XYZ
    dof rx
    limits (-10.0 170.0)
  end
  begin
     id 20
     name lwrist
     direction 1 -4.49003e-011 1.1934e-026   
     length 1.65008   
     axis -8.46377e-015 90 90   XYZ
    dof ry
    limits (-180.0 0.0)
 end
  begin
     id 21 
     name lhand
     direction 1 -4.49034e-011 2.38659e-026   
     length 0.707698   
     axis -1.52313e-014 90 90   XYZ
    dof rx rz
    limits (-90.0 90.0)
           (-45.0 45.0)
  end
  begin
     id 22 
     name lfingers
     direction 1 -4.48691e-011 4.77775e-026   
     length 0.570564   
     axis -3.04623e-014 90 90   XYZ
    dof rx
    limits (0.0 90.0)
  end
  begin
     id 23
     name lthumb
     direction 0.707107 -6.34832e-011 0.707107   
     length 0.819219   
     axis -90 45 -1.62303e-014   XYZ
    dof rx rz
    limits (-45.0 45.0)
           (-45.0 45.0)
  end
  begin
     id 24 
     name rclavicle
     direction -0.815579 0.573708 -0.0754329   
     length 3.54371  
     axis 0 0 0   XYZ 
    dof ry rz
    limits (-10.0 20.0)
           (-20.0 0.0)
  end
  begin
     id 25 
     name rhumerus
     direction -1 -4.48956e-011 3.05351e-028  
     length 5.23924   
     axis 180 30 90   XYZ
    dof rx ry rz
    limits (-90.0 60.0)
           (-90.0 90.0)
           (-90.0 90.0)
  end
  begin
     id 26 
     name rradius
     direction -1 -4.49013e-011 3.53849e-027   
     length 3.32953   
     axis 180 30 90   XYZ
    dof rx
    limits (-10.0 170.0)
  end
  begin
     id 27 
     name rwrist
     direction -1 -4.48901e-011 1.19374e-026   
     length 1.66477   
     axis -8.46377e-015 -90 -90   XYZ
    dof ry
    limits (-180.0 0.0)
  end
  begin
     id 28
     name rhand
     direction -1 -4.48877e-011 2.38764e-026   
     length 0.607414   
     axis -1.52313e-014 -90 -90   XYZ
    dof rx rz
    limits (-90.0 90.0)
           (-45.0 45.0)
  end
  begin
     id 29
     name rfingers
     direction -1 -4.48882e-011 4.77521e-026   
     length 0.489712   
     axis -3.04623e-014 -90 -90   XYZ
    dof rx
    limits (0.0 90.0)
  end
  begin
     id 30
     name rthumb
     direction -0.707107 -6.34974e-011 0.707107   
     length 0.703132   
     axis -90 -45 1.62303e-014   XYZ
    dof rx rz
    limits (-45.0 45.0)
           (-45.0 45.0)
  end
:hierarchy
  begin
    root lhipjoint rhipjoint lowerback
    lhipjoint lfemur
    lfemur ltibia
    ltibia lfoot
    lfoot ltoes
    rhipjoint rfemur
    rfemur rtibia
    rtibia rfoot
    rfoot rtoes
    lowerback upperback
    upperback thorax
    thorax lowerneck lclavicle rclavicle
    lowerneck upperneck
    upperneck head
    lclavicle lhumerus
    lhumerus lradius
    lradius lwrist
    lwrist lhand lthumb
    lhand lfingers
    rclavicle rhumerus
    rhumerus rradius
    rradius rwrist
    rwrist rhand rthumb
    rhand rfingers
  end

#!OML:ASF E:\VariousWalksJay\Project 1\Capture day 1\Session 1\Actor2.ASF
:FULLY-SPECIFIED
:DEGREES
98
root 25.0798 15.2723 -19.1319 15.0613 -40.1016 0.511612
lowerback 24.6349 -5.55077 6.80449
upperback 17.5797 -6.61674 -1.60162
thorax 5.23834 -2.91775 -4.26634
lowerneck 5.67954 2.43389 2.92587
upperneck -21.1637 3.01723 -3.13607
head -7.30842 1.42786 -1.74273
rclavicle -2.8625e-014 7.91163e-014
rhumerus -52.2432 19.3547 -87.2621
rradius 91.7253
rwrist 14.1763
rhand -47.5252 15.511
rfingers 7.12502
rthumb -20.2121 -13.4574
lclavicle -2.8625e-014 7.91163e-014
lhumerus 30.8664 -43.4937 55.8958
lradius 97.526
lwrist 37.5982
lhand -41.0617 3.61521
lfingers 7.12502
lthumb -13.9911 33.1244
rfemur -66.7974 1.8704 28.419
rtibia 60.6157
rfoot -12.9501 -13.5553
rtoes 8.51895
lfemur -24.4313 19.0929 -30.7482
ltibia 68.2521
lfoot -27.5811 -10.0324
ltoes -27.1451
99
root 25.0442 15.2043 -19.1252 16.192 -39.4792 0.874623
lowerback 24.2578 -5.61564 6.45154
upperback 17.2484 -6.73558 -1.33036
thorax 5.05859 -3.02149 -3.75505
lowerneck 5.67163 2.42612 2.96766
upperneck -21.332 2.98621 -3.24216
head -7.36015 1.41632 -1.78466
rclavicle -1.90833e-014 2.10712e-014
rhumerus -51.869 19.4005 -87.1325
rradius 92.0129
rwrist 14.1546
rhand -47.6891 15.3561
rfingers 7.12502
rthumb -20.3696 -13.5956
lclavicle -1.90833e-014 2.10712e-014
lhumerus 31.0602 -42.9953 55.8338
lradius 97.728
lwrist 37.8784
lhand -42.4154 2.56068
lfingers 7.12502
lthumb -15.2953 31.9751
rfemur -68.8786 1.9589 28.1484
rtibia 61.6293
rfoot -12.909 -14.2022
rtoes 9.40753
lfemur -26.5216 18.28 -31.0889
ltibia 69.3944
lfoot -26.7006 -10.4496
ltoes -26.9289
100
root 25.0041 15.1677 -19.0311 16.1659 -39.7758 0.840244
lowerback 24.744 -5.63397 6.58955
upperback 17.4013 -6.71934 -1.40256
thorax 4.99916 -3.00258 -3.8848
lowerneck 5.65486 2.425 2.89702
upperneck -21.5645 2.9694 -3.24021
head -7.43519 1.40976 -1.77458
rclavicle 3.18055e-015 4.37326e-015
rhumerus -51.3424 19.4696 -86.9976
rradius 92.2943
rwrist 14.1098
rhand -47.7005 15.2752
rfingers 7.12502
rthumb -20.3806 -13.6753
lclavicle 3.18055e-015 4.37326e-015
lhumerus 31.4562 -42.4359 55.6259
lradius 97.8602
lwrist 37.9852
lhand -41.1487 4.00231
lfingers 7.12502
lthumb -14.075 33.5057
rfemur -68.9891 2.27158 27.9663
rtibia 62.553
rfoot -13.2607 -14.2373
rtoes 10.1431
lfemur -26.4377 18.3427 -31.0922
ltibia 70.1328
lfoot -26.339 -10.5193
ltoes -27.0223
101
root 24.9614 15.1345 -18.9398 16.2243 -40.0326 0.766805
lowerback 25.2163 -5.63744 6.68747
upperback 17.5031 -6.6862 -1.42526
thorax 4.89777 -2.98291 -3.94062
lowerneck 5.54715 2.4258 2.92167
upperneck -21.6463 2.95691 -3.29266
head -7.44162 1.40402 -1.79434
rclavicle -2.14687e-014 -3.73715e-014
rhumerus -50.8605 19.591 -86.8421
rradius 92.6413
rwrist 13.9731
rhand -47.7334 15.0508
rfingers 7.12502
rthumb -20.4122 -13.8963
lclavicle -2.14687e-014 -3.73715e-014
lhumerus 32.0171 -41.9387 54.9557
lradius 98.026
lwrist 38.3046
lhand -42.826 2.36852
lfingers 7.12502
lthumb -15.6907 31.7523
rfemur -69.119 2.58061 27.8322
rtibia 63.4225
rfoot -13.7497 -14.2834
rtoes 11.1802
lfemur -26.4638 18.3691 -31.0484
ltibia 70.9107
lfoot -25.856 -10.5946
ltoes -26.9122
102
root 24.917 15.1028 -18.8614 16.383 -40.3933 0.564761
lowerback 25.7981 -5.53772 6.48721
upperback 17.5614 -6.56946 -1.28019
thorax 4.74553 -2.96202 -3.65793
lowerneck 5.52884 2.47244 2.70245
upperneck -21.7692 2.98008 -3.33783
head -7.48068 1.43517 -1.77592
rclavicle 1.90833e-014 -9.54166e-014
rhumerus -50.1191 19.6778 -86.7529
rradius 92.6385
rwrist 14.2297
rhand -48.0333 14.5812
rfingers 7.12502
rthumb -20.7004 -14.3348
lclavicle 1.90833e-014 -9.54166e-014
lhumerus 32.3423 -41.2913 54.7464
lradius 98.0996
lwrist 38.3681
lhand -40.8682 4.6019
lfingers 7.12502
lthumb -13.8046 34.1239
rfemur -69.2269 3.08248 27.7914
rtibia 64.1696
rfoot -14.0478 -14.4822
rtoes 10.9307
lfemur -26.6508 18.5476 -30.8933
ltibia 71.6419
lfoot -24.9887 -10.876
ltoes -26.367
103
root 24.876 15.0737 -18.7844 16.5304 -40.5084 0.384768
lowerback 26.3184 -5.67739 6.52723
upperback 17.7003 -6.71621 -1.24497
thorax 4.66323 -3.04123 -3.57541
lowerneck 5.19241 2.614 2.38503
upperneck -21.8044 3.14259 -3.25712
head -7.43393 1.52881 -1.70305
rclavicle 1.82882e-014 4.77083e-014
rhumerus -49.157 20.102 -86.7003
rradius 92.7238
rwrist 14.3364
rhand -47.4912 15.0262
rfingers 7.12502
rthumb -20.1794 -13.9457
lclavicle 1.82882e-014 4.77083e-014
lhumerus 32.5266 -40.2894 54.7534
lradius 98.1562
lwrist 38.2613
lhand -40.7647 4.58666
lfingers 7.12502
lthumb -13.7049 34.1154
rfemur -69.3296 3.31027 27.8099
rtibia 64.8653
rfoot -14.4746 -14.5693
rtoes 11.0367
lfemur -26.8495 18.5295 -30.6813
ltibia 72.4677
lfoot -24.0496 -11.0512
ltoes -29.0314
104
root 24.8361 15.0489 -18.7104 16.6629 -40.5449 0.239714
lowerback 26.8558 -5.6639 6.88056
upperback 17.6885 -6.5892 -1.31105
thorax 4.38925 -2.95294 -3.83089
lowerneck 5.37098 2.49251 2.82556
upperneck -21.9213 3.02919 -3.27823
head -7.49994 1.43938 -1.78057
rclavicle 0 7.11649e-014
rhumerus -48.8023 19.751 -86.7966
rradius 93.1315
rwrist 14.3237
rhand -47.7429 14.0589
rfingers 7.12502
rthumb -20.4214 -14.8873
lclavicle 0 7.11649e-014
lhumerus 33.224 -40.071 54.1067
lradius 98.2314
lwrist 38.4966
lhand -40.4396 4.86454
lfingers 7.12502
lthumb -13.3916 34.4141
rfemur -69.416 3.50045 27.7816
rtibia 65.5174
rfoot -15.0165 -14.6809
rtoes 11.3575
lfemur -27.1619 18.419 -30.4725
ltibia 73.3867
lfoot -22.9083 -11.3324
ltoes -28.7092
105
root 24.7931 15.0274 -18.6362 16.8069 -40.6386 -0.0209539
lowerback 27.4095 -5.79213 6.88981
upperback 17.8452 -6.72482 -1.21055
thorax 4.32911 -3.03353 -3.66003
lowerneck 5.02296 2.63964 2.36046
upperneck -21.9867 3.19101 -3.14037
head -7.46504 1.53917 -1.66436
rclavicle -5.56597e-015 -3.49861e-014
rhumerus -47.8088 20.4568 -86.4625
rradius 93.3872
rwrist 14.1994
rhand -47.4781 14.0384
rfingers 7.12502
rthumb -20.1669 -14.9348
lclavicle -5.56597e-015 -3.49861e-014
lhumerus 33.643 -38.9707 53.7783
lradius 98.2193
lwrist 38.6886
lhand -40.5237 4.92958
lfingers 7.12502
lthumb -13.4726 34.4738
rfemur -69.372 3.75255 27.8431
rtibia 66.1321
rfoot -15.5679 -14.7916
rtoes 11.4359
lfemur -27.4288 18.4536 -30.1486
ltibia 74.3768
lfoot -21.9014 -11.4707
ltoes -29.2675
106
root 24.7536 15.002 -18.5686 16.9548 -40.4568 -0.0300807
lowerback 27.6807 -5.95137 7.11568
upperback 17.9511 -6.86264 -1.2104
thorax 4.30763 -3.08323 -3.73501
lowerneck 4.94185 2.65054 2.27047
upperneck -22.1983 3.21633 -3.0029
head -7.52419 1.54214 -1.60826
rclavicle 6.04305e-014 -1.21656e-013
rhumerus -47.0119 20.6657 -86.3683
rradius 93.7896
rwrist 14.182
rhand -47.3472 13.4115
rfingers 7.12502
rthumb -20.041 -15.575
lclavicle 6.04305e-014 -1.21656e-013
lhumerus 34.3935 -38.2125 53.1253
lradius 98.1947
lwrist 39.0163
lhand -40.6622 5.43391
lfingers 7.12502
lthumb -13.6061 34.9693
rfemur -69.6042 3.70498 27.7838
rtibia 66.7685
rfoot -16.0959 -14.8676
rtoes 11.6086
lfemur -28.0099 18.1292 -29.9971
ltibia 75.5158
lfoot -20.7047 -11.7784
ltoes -29.5371
107
root 24.7133 14.9834 -18.4968 17.0673 -40.5858 -0.246865
lowerback 28.1882 -5.85735 7.46586
upperback 17.9899 -6.64008 -1.27155
thorax 4.12761 -2.94611 -4.01819
lowerneck 5.1668 2.50186 2.77513
upperneck -22.438 3.06581 -3.04773
head -7.63859 1.42891 -1.7044
rclavicle -1.43125e-014 5.40694e-014
rhumerus -46.4984 20.2139 -86.4602
rradius 94.1753
rwrist 14.3505
rhand -47.2547 12.6186
rfingers 7.12502
rthumb -19.9521 -16.3772
lclavicle -1.43125e-014 5.40694e-014
lhumerus 35.5076 -37.9579 52.1261
lradius 98.1059
lwrist 39.4689
lhand -40.9601 5.276
lfingers 7.12502
lthumb -13.8932 34.7919
rfemur -69.5588 3.87418 27.8622
rtibia 67.3423
rfoot -16.5973 -14.9116
rtoes 11.4575
lfemur -28.4946 18.2239 -29.7586
ltibia 76.7011
lfoot -19.8681 -11.7523
ltoes -30.4095
